<?xml version="1.0" encoding="UTF-8" standalone="no"?>
<svg
   xmlns:dc="http://purl.org/dc/elements/1.1/"
   xmlns:cc="http://creativecommons.org/ns#"
   xmlns:rdf="http://www.w3.org/1999/02/22-rdf-syntax-ns#"
   xmlns:svg="http://www.w3.org/2000/svg"
   xmlns="http://www.w3.org/2000/svg"
   xmlns:sodipodi="http://sodipodi.sourceforge.net/DTD/sodipodi-0.dtd"
   xmlns:inkscape="http://www.inkscape.org/namespaces/inkscape"
   viewBox="0 0 106.67 106.67"
   id="svg2"
   version="1.1"
   inkscape:version="0.91 r13725"
   sodipodi:docname="ASdom_low.svg">
  <metadata
     id="metadata36">
    <rdf:RDF>
      <cc:Work
         rdf:about="">
        <dc:format>image/svg+xml</dc:format>
        <dc:type
           rdf:resource="http://purl.org/dc/dcmitype/StillImage" />
        <dc:title></dc:title>
      </cc:Work>
    </rdf:RDF>
  </metadata>
  <defs
     id="defs34" />
  <sodipodi:namedview
     pagecolor="#ffffff"
     bordercolor="#666666"
     borderopacity="1"
     objecttolerance="10"
     gridtolerance="10"
     guidetolerance="10"
     inkscape:pageopacity="0"
     inkscape:pageshadow="2"
     inkscape:window-width="1855"
     inkscape:window-height="1056"
     id="namedview32"
     showgrid="false"
     inkscape:zoom="4.4248618"
     inkscape:cx="53.952702"
     inkscape:cy="40.428244"
     inkscape:window-x="65"
     inkscape:window-y="24"
     inkscape:window-maximized="1"
     inkscape:current-layer="g4" />
  <g
     fill-rule="evenodd"
     stroke-width="1.25"
     id="g4">
    <g
       id="g4174"
       transform="matrix(0.55390847,0,0,0.60479011,39.558649,8.1155813)">
      <path
         d="m 54.706,11.308 c -10.238,0 -18.562,6.648 -18.562,14.844 0,5.601 3.9314,10.44 9.6562,12.969 -7.5768,1.4548 -14.436,3.9617 -18.5,7.8125 -8.63,11.455 -5.4058,20.464 -5.5625,22.094 0.77275,0.86604 5.6741,4.1606 9.3438,3.9062 -0.15926,-3.2133 0.18917,-6.8722 0.59375,-10.125 0.53795,-4.325 1.1875,-7.8125 1.1875,-7.8125 -0.23497,0.18811 -0.76893,3.7983 -1.1875,7.8125 -0.41856,4.0142 -0.71025,8.4095 -0.4375,10.156 -0.04946,0.0048 -0.10631,-0.03471 -0.15625,-0.03125 0.002,0.03938 -0.0021,0.08579 0,0.125 0.4,6.4898 3.6526,21.402 5.0625,22.656 13.819,1.9834 27.023,1.7151 41.469,0.3125 0,0 0.4007,-3.826 0.5,-4.75 1.1976,-4.046 2.4237,-10.056 1.5,-14.375 0.09515,-0.93988 0.09161,-0.88409 0.1875,-1.8438 -0.78884,-11.043 -2.9137,-18.507 -2.8438,-18.344 1.6365,4.8036 2.8437,18.344 2.8438,18.344 4.7817,-0.8144 8.1246,-1.617 12.906,-4.3125 1.5665,-1.6303 2.3414,-10.961 -4.75,-23.625 -2.9838,-5.3285 -11.962,-8.2536 -22.25,-9.0938 4.5401,-2.7072 7.5312,-6.998 7.5312,-11.875 0,-0.0438 -0.03079,-0.08129 -0.03125,-0.125 0.11903,-0.57673 0.34536,-1.3644 0.40625,-1.75 -0.26791,-0.17625 -0.41975,-0.13599 -0.65625,-0.25 -1.3082,-7.1729 -8.9289,-12.719 -18.25,-12.719 z"
         id="path8"
         inkscape:connector-curvature="0"
         style="fill-opacity:0.5;stroke-linejoin:round" />
      <g
         id="g4170">
        <path
           style="fill:#e5eef6;fill-opacity:1;stroke:#000000;stroke-linejoin:round"
           d="m 18.815,66.312 c 0.15665,-1.6303 -3.0463,-10.64 5.5837,-22.094 13.016,-12.332 53.567,-12.474 60.659,0.19034 7.0914,12.664 6.3193,21.994 4.7528,23.624 -4.7817,2.6955 -8.1535,3.5099 -12.935,4.3243 0,0 -1.1777,-13.555 -2.8142,-18.359 -0.06998,-0.16356 2.0253,7.3206 2.8142,18.363 -1.091,10.917 -2.182,20.957 -2.182,20.957 -14.446,1.4026 -27.638,1.6765 -41.458,-0.30682 -1.4099,-1.2541 -4.6661,-16.16 -5.0661,-22.65 -0.39999,-7.4931 1.7931,-18.092 1.7931,-18.092 -0.46995,0.37621 -2.182,14.498 -1.6365,17.992 -3.6841,0.35836 -8.7279,-3.0702 -9.5112,-3.9481 z"
           id="path12"
           inkscape:connector-curvature="0" />
        <path
           style="fill:#eaf3fb;fill-opacity:1;stroke:#000000;stroke-linejoin:round"
           d="m 70.33,23.447 c 0,8.1958 -8.309,14.847 -18.547,14.847 -10.238,0 -18.547,-6.6516 -18.547,-14.847 0,-8.1958 8.309,-14.847 18.547,-14.847 10.238,0 18.547,6.6516 18.547,14.847 z"
           id="path14"
           inkscape:connector-curvature="0" />
      </g>
      <g
         id="g16"
         style="fill-opacity:0.25">
        <g
           id="g18"
           style="fill:#ffffff">
          <path
             id="path20"
             d="M 51.512,9.7195 C 43.4352,7.0272 24.41,21.0275 39.487,33.5905 48.6407,31.7957 31.0512,17.2575 51.512,9.7195 Z"
             inkscape:connector-curvature="0" />
          <path
             id="path22"
             d="m 42.179,37.181 c -0.89742,-0.17948 -12.923,1.9743 -17.23,7.8973 -3.5897,2.1538 -6.9999,12.384 -5.564,20.641 1.7948,1.4359 5.205,3.7692 6.1025,3.2307 5.0256,-10.59 -11.846,-21.538 16.692,-31.769 z"
             inkscape:connector-curvature="0" />
          <path
             id="path24"
             d="m 30.153,55.129 c -3.5897,10.948 -0.17948,30.512 3.7692,36.974 3.9486,1.2564 9.5127,1.7948 10.769,1.4359 1.0769,-9.1537 -14.897,-7.8973 -14.538,-38.41 z"
             inkscape:connector-curvature="0" />
        </g>
        <path
           id="path26"
           d="M 52.589,37.54 C 67.845,33.4119 63.897,17.079 70.717,21.566 70.17855,24.9762 68.0247,37.002 52.589,37.54 Z"
           inkscape:connector-curvature="0" />
        <path
           id="path28"
           d="m 81.306,70.565 c 0,0 8.2563,-1.6154 8.6152,-3.2307 1.9743,-6.282 -3.4102,-21.179 -5.923,-23.692 -12.205,-4.3076 13.282,24.948 -2.6923,26.923 z"
           inkscape:connector-curvature="0" />
      </g>
      <path
         id="path30"
         d="m 64.973,93.539 c 0,0 7.8973,0.53846 8.7947,-0.89742 0.89742,-1.4359 5.0256,-14 2.5128,-20.102 -8.2563,-6.8204 3.0512,20.82 -11.308,21 z"
         inkscape:connector-curvature="0"
         style="fill-opacity:0.23999999" />
    </g>
  </g>
</svg>
