<?xml version="1.0" encoding="UTF-8" standalone="no"?>
<!-- Created with Inkscape (http://www.inkscape.org/) -->

<svg
   xmlns:dc="http://purl.org/dc/elements/1.1/"
   xmlns:cc="http://creativecommons.org/ns#"
   xmlns:rdf="http://www.w3.org/1999/02/22-rdf-syntax-ns#"
   xmlns:svg="http://www.w3.org/2000/svg"
   xmlns="http://www.w3.org/2000/svg"
   xmlns:sodipodi="http://sodipodi.sourceforge.net/DTD/sodipodi-0.dtd"
   xmlns:inkscape="http://www.inkscape.org/namespaces/inkscape"
   viewBox="0 0 77.952756 77.952756"
   id="svg6451"
   version="1.1"
   inkscape:version="0.92.4 (33fec40, 2019-01-16)"
   sodipodi:docname="AShappy.svg">
  <defs
     id="defs6453" />
  <sodipodi:namedview
     id="base"
     pagecolor="#ffffff"
     bordercolor="#666666"
     borderopacity="1.0"
     inkscape:pageopacity="0.0"
     inkscape:pageshadow="2"
     inkscape:zoom="3.959798"
     inkscape:cx="74.607195"
     inkscape:cy="65.285135"
     inkscape:document-units="px"
     inkscape:current-layer="g5786"
     showgrid="false"
     inkscape:window-width="1366"
     inkscape:window-height="768"
     inkscape:window-x="0"
     inkscape:window-y="24"
     inkscape:window-maximized="0" />
  <metadata
     id="metadata6456">
    <rdf:RDF>
      <cc:Work
         rdf:about="">
        <dc:format>image/svg+xml</dc:format>
        <dc:type
           rdf:resource="http://purl.org/dc/dcmitype/StillImage" />
        <dc:title />
      </cc:Work>
    </rdf:RDF>
  </metadata>
  <g
     inkscape:label="Layer 1"
     inkscape:groupmode="layer"
     id="layer1"
     transform="translate(0,-974.40945)">
    <g
       transform="matrix(1.25,0,0,-1.25,-959.56604,1121.7353)"
       id="g5786">
      <g
         transform="translate(816.7305,96.748)"
         id="g52">
        <path
           inkscape:connector-curvature="0"
           id="path54"
           style="fill:#505050;fill-opacity:1;fill-rule:nonzero;stroke:none"
           d="m 0,0 -3.463,0.331 c 0.221,2.298 -1.26,4.326 -3.297,4.521 -2.029,0.196 -3.875,-1.52 -4.095,-3.82 l -3.461,0.333 c 0.404,4.209 3.955,7.327 7.886,6.95 C -2.482,7.938 0.402,4.208 0,0" />
      </g>
      <g
         transform="translate(779.7441,96.6484)"
         id="g66">
        <path
           inkscape:connector-curvature="0"
           id="path68"
           style="fill:#505050;fill-opacity:1;fill-rule:nonzero;stroke:none"
           d="m 0,0 c -0.465,4.201 2.332,7.971 6.233,8.405 3.898,0.439 7.456,-2.637 7.921,-6.839 L 10.697,1.184 C 10.443,3.48 8.615,5.166 6.616,4.948 4.621,4.726 3.203,2.677 3.457,0.382 L 0,0 Z" />
      </g>
      <g
         transform="translate(798.9492,114.2021)"
         id="g70">
        <path
           inkscape:connector-curvature="0"
           id="path72"
           style="fill:#505050;fill-opacity:1;fill-rule:nonzero;stroke:none"
           d="m 0,0 c -15.271,0 -27.694,-12.423 -27.694,-27.693 0,-15.271 12.423,-27.694 27.694,-27.694 15.27,0 27.693,12.423 27.693,27.694 C 27.693,-12.423 15.27,0 0,0 m 0,-57.887 c -16.649,0 -30.194,13.545 -30.194,30.194 C -30.194,-11.045 -16.649,2.5 0,2.5 16.648,2.5 30.193,-11.045 30.193,-27.693 30.193,-44.342 16.648,-57.887 0,-57.887" />
      </g>
      <g
         transform="matrix(-1.2883195,-0.03234181,0.02957127,-1.4090228,784.48785,80.718631)"
         id="g32">
        <path
           inkscape:connector-curvature="0"
           id="path34"
           style="fill:#505050;fill-opacity:1;fill-rule:nonzero;stroke:none"
           d="M 0,0 C -4.293,6.925 -10.559,6.659 -13.053,6.224 -16.99,5.536 -20.139,3.141 -20.542,0.527 l -3.983,0.518 c 0.648,4.194 5.056,7.815 10.719,8.805 6.97,1.214 13.435,-1.785 17.302,-8.026 z" />
      </g>
    </g>
  </g>
</svg>
